/* XPM */
static char *_c4697db22e74978b20d58a4c0d01a58g8jwHIR5HffjDnlO[] = {
/* columns rows colors chars-per-pixel */
"50 50 192 2 ",
"   c #2C0C0C",
".  c #350505",
"X  c #3D0405",
"o  c #320D0D",
"O  c #3D0B0B",
"+  c #36110F",
"@  c #320F11",
"#  c #271515",
"$  c #2D1616",
"%  c #241817",
"&  c #2C1817",
"*  c #271C1B",
"=  c #2A1C1C",
"-  c #311515",
";  c #3C1313",
":  c #341A1A",
">  c #3A1C1C",
",  c #2B201F",
"<  c #35201F",
"1  c #2C2524",
"2  c #2C2728",
"3  c #2E2929",
"4  c #372020",
"5  c #3D2424",
"6  c #322C2C",
"7  c #3D2B2B",
"8  c #302F30",
"9  c #353434",
"0  c #3A3737",
"q  c #3C3B3B",
"w  c #440405",
"e  c #4C0303",
"r  c #410906",
"t  c #4D0806",
"y  c #470608",
"u  c #490708",
"i  c #440B0C",
"p  c #4B0B0B",
"a  c #550505",
"s  c #5C0505",
"d  c #540907",
"f  c #5C0806",
"g  c #530708",
"h  c #5C0708",
"j  c #540C0C",
"k  c #5C0C0C",
"l  c #45100F",
"z  c #4B100D",
"x  c #54110E",
"c  c #5C110E",
"v  c #420F12",
"b  c #550E10",
"n  c #5C0E10",
"m  c #431112",
"M  c #4C1313",
"N  c #4F1817",
"B  c #421718",
"V  c #451D1D",
"C  c #4C1A1A",
"Z  c #541313",
"A  c #5D1313",
"S  c #541815",
"D  c #5C1916",
"F  c #551718",
"G  c #5D1719",
"H  c #541A1A",
"J  c #5C1B1B",
"K  c #630506",
"L  c #6B0606",
"P  c #650807",
"I  c #620709",
"U  c #630C0C",
"Y  c #6A0D0C",
"T  c #710C0B",
"R  c #64110E",
"E  c #6B120E",
"W  c #73140E",
"Q  c #620F11",
"!  c #631313",
"~  c #6A1413",
"^  c #641916",
"/  c #6A1A15",
"(  c #641618",
")  c #691719",
"_  c #641B1A",
"`  c #6B1C1A",
"'  c #711411",
"]  c #721A16",
"[  c #721D1B",
"{  c #40211F",
"}  c #4E201F",
"|  c #5C201E",
" . c #65211D",
".. c #6C211E",
"X. c #74221D",
"o. c #691D21",
"O. c #412323",
"+. c #4C2626",
"@. c #452C2B",
"#. c #4C2C2C",
"$. c #542323",
"%. c #5B2323",
"&. c #552827",
"*. c #532B2B",
"=. c #5B2B2A",
"-. c #47302F",
";. c #50302F",
":. c #442F30",
">. c #552F30",
",. c #443434",
"<. c #4D3433",
"1. c #463837",
"2. c #4A3837",
"3. c #433C3C",
"4. c #4B3C3C",
"5. c #563535",
"6. c #533232",
"7. c #593636",
"8. c #5D3736",
"9. c #5C3737",
"0. c #503937",
"q. c #523838",
"w. c #5C3A3A",
"e. c #662321",
"r. c #6B2421",
"t. c #662925",
"y. c #6C2925",
"u. c #672328",
"i. c #782521",
"p. c #722923",
"a. c #722C29",
"s. c #75312E",
"d. c #713833",
"f. c #4E403F",
"g. c #3E4141",
"h. c #434343",
"j. c #4F4444",
"k. c #4B4343",
"l. c #454B4B",
"z. c #4B4D4D",
"x. c #574343",
"c. c #534343",
"v. c #5F4242",
"b. c #544B4B",
"n. c #5E4F4F",
"m. c #5D504F",
"M. c #4B4F50",
"N. c #4D5152",
"B. c #4F5959",
"V. c #555252",
"C. c #535555",
"Z. c #585656",
"A. c #5A5454",
"S. c #595857",
"D. c #535758",
"F. c #585758",
"G. c #535958",
"H. c #555A5A",
"J. c #555A5A",
"K. c #5A5A5A",
"L. c #595858",
"P. c #5A5B5C",
"I. c #5A5E5D",
"U. c #5B5B5B",
"Y. c #634544",
"T. c #625252",
"R. c #615858",
"E. c #605F5F",
"W. c #615E5E",
"Q. c #5B605F",
"!. c #61605F",
"~. c #556061",
"^. c #5B6060",
"/. c #5C6060",
"(. c #5E6262",
"). c #5F6463",
"_. c #5C6362",
"`. c #606262",
"'. c #616463",
"]. c #606564",
"[. c #626766",
"{. c #626665",
"}. c #636464",
"|. c #686767",
" X c #666A6A",
".X c #636A6B",
"XX c #68696A",
"oX c #6B6D6C",
"OX c #6E706F",
"+X c #6C7373",
"@X c #6D7474",
"#X c #747777",
/* pixels */
"J.(.'.I.I.G./.I.(.(.Z.W.`.I.^.Q.(.{. X{.].{.{. X{.{.`.(.(.L.L.(.(.J.I.Q.{.{.).Q.I.J.^.{.I.I.(.I.D.J.",
"+.#.6.;.6.*.<.4.6.6.L.oXR.+.*.*.5.5.6.6.6.6.6.5.*.<.4.2.c.[.P.2.+.@.6.*.>.6.6.5.*.*.*.7.#.+.<.,.-.*.",
"^ ~ R ^ ! T Y ~ ] f j.@X9.s Y Y / / k j j Z F n k k F Z i Z.`.p k ! U U ~ U U ) ` Q E ~ ^ ^ D F A ^ ",
"^ ^ ! ! / ] ~ ] i.R 4.+Xw.f ' ~ ^ ^ ( ^ ^ G ( ~ G F A G M Z.XXF U ~ U ~ ~ U ! U ~ ^ ..[ / ~ ^ ^ _ / ",
"! A A k ~ [ ` ` [ R 4.+X7.a Y U ! A ! ^ Q ^ ! ~ _ F A G p V.XXF k ! ~ U Y U k ~ ~ / ] ] / U ] ../ / ",
"~ A A k R ` e.` / k 4..X9.h ! ! A A A G A _ ~ Y ^ J G ( p V.XXH ^ G ^ G ! ! A ( ^ ~ ! ` ` ~ ] X.' ) ",
"Y R k U U A ! Y P f ,.).6.a ! ! ! ( _ A n ( ) ~ A F A k u D.XXZ P Y U A k k A ( _ n ~ p.[ E W W E ' ",
"o       o   o o o ; k.J.c.- $ @ o o - -   o o @ $       > D.XX+.. o o               + ; o o + o o o ",
"l.g.h.l.M.l.z.l.h.l.N.J.{.oX(.I.N.N.l.z.N.N.N.l.l.N.N.N.J.{.#X{.B.N.l.N.D.G.N.N.N.z.h.g.l.N.B.N.M.z.",
"=.V V $.C } $.H +.;.#.} b.[.W.#.+.+.$.$.$.%.%.%.$.&.$.$.$.*.*.=.*.&.%.=.=.=.&.#.+.m.J.k.&.%.=.&.*.=.",
"` A j [ X. .` E I k k a O.G.n.e k I I P P P Y ! ! ~ A n I U A G ! Y Y U ! _ A A e @.I.#.s f f U A ^ ",
"^ k g R p...` ^ f k f a > l.c.j ^ U I I f k k k k k k k g U ! ! A Y ~ Y ~ ^ U A t 5 J.w.h f f k k ~ ",
"! g j  ._ k ! ^ k k f a O.D.n.J s.r.I f j f k k k j k k Z A ~ ~ k Y U U ~ ~ Y ! e O.^.w.a k f g k E ",
"U k k _ ..R A ^ ^ A A a V D.m.S ..~ I I k f k k k Z U k k ! ^ G ~ ~ ~ E ~ Y U U t 5 ).v.a k f g j ! ",
"I g a k A c A j x j j a V N.c.i x k k h f k g g j j k a g a f k f k k k U P I j w 5 ).Y.e g a a u k ",
"$ $ $ $ $ $ : & & & & - ,.D.A.: & & $ $ - $ $ $ # & & $ $ $ - - $ $ $ $ - $ & $ - 3.{.W.> $ $ $ # $ ",
"D.z.l.l.l.q z.N.z.z.l.h.l.L.I.M.N.z.z.z.l.N.C.I.P.C.N.D.N.l.l.z.z.N.J.N.z.z.z.z.D.L.|.OX(.N.N.N.l.D.",
"A.C Z H N C C Z N F Z F F $.H F F Z F C Z +.L.{.=.F %.| J J J J F J J | J %.| F J D H %.J H | &.+.b.",
"j.u a k k k f f A k f f ! ! f f P P I f K p z.I.D ^ ` / ^ / ~ Y Y Y U Y Y ~ ~ I I k k k k f ! y.H ,.",
"4.i u a ~ A _  .D g a a _ o.g f f k I I P p h.I.D R D D ! E E P I ! I Y Y Y Y k f n j k f f k ..H 0 ",
"c.u t k R _ G ! A g a a J u.c E f a n ! Q b h.L.Z d c j J ` E I f f I U ~ U U k k k g j k f h ` S ,.",
"c.t g f f U R k ! R I k k ~ ^ ! k h h f f p l.D.z f c j  .a.~ P f U Y P U U Y k k k k f k k j A j 7 ",
"2.. p p i p Z M D S Z x g j x j u u y e u O h.z.O w i u Z Z x j p j d p u j k p u u i u u p i j y 7 ",
"F.6 * = * = * * 1 1 = = , , , = = * * = = 6 l.D.,.1 , = = = = & % & & * = = = * * * * * = * * = = q ",
"z.z.h.3.3.q 0 9 l.D.z.l.k.h.k.h.k.k.3.h.z.3.z.L.z.z.k.h.h.3.l.z.D.N.3.3.k.h.3.0 0 3.0 3.0 0 3.3.3.k.",
"J F A F D D D j +.^.b.p j _ ^ A A r.e.~ ..G C F F S J _ J D j f.{.9.I _ ~ ^ ) ^ Z A ( ( ^ J J H F J ",
"A j Z Z j I I f F I.c.a s I E ~ Y E ..E Y ! Z Z j j A _ e./ s @.~.=.K Y L L L P h I Y P f k Z A Z k ",
"Z k Z Z j f f f C G.c.e h h k ) k f R ^ G F Z Z j k Y k ~ ! s 7 B.=.P U U P K I h f f U k b F F j j ",
"n k j b k k k ! M G.j.e f a k ^ ! A Y P R k c R j j I f U E f 5 J.*.s k I K I K g b n ! k n A ( j b ",
"G A b n ! ( ^ A C G.j.e I h U / / U I P I E / E k Z k f I E k 7 B.=.s k I f f f h k Q n ! Q ! ! k A ",
"v v m i i m ; i V D.j.. w w X i z i y p t x x t w X X y w y r 7 G.*.X i i w X X w w u i i i v i w i ",
"2 8 6 6 6 6 6 6 q D.I.0 2 3 3 1 1 1 3 6 2 1 1 2 1 1 2 3 3 3 6 g.I.L.9 3 3 2 3 6 3 3 3 1 3 3 2 2 2 1 ",
"z.4.,.2.1.2.j.4.1.c.c.4.1.,.2.1.1.,.f.c.2.3.h.4.3.l.I.l.,.2.7 1.T.T.c.4.4.f.c.c.4.2.,.,.2.3.l.h.1.z.",
",.X M G G n A A k j j j n k j A A c ! R R ! J Z u 3.D.B Z G k ^ A U A e.d.r.Z k A ^ ) ^ G J %.e.p 4.",
":.i D ^ ! n k k k n A U U k k k A _ R / R f k Z S k.D.M j j U ~ R U k A ` U k j k k ( U ! ! Q ) j ,.",
":.i A U Q F A ( A n k ! G Z A k A ^ R / U h k c Z 3.D.M E ` J ^ E k k k k Z j A f n ^ ~ Y P U ! y ,.",
"<.u k k k k Q U k k U ! ^ R k k j k U U h f k k j 0 N.Z k ! ^ ! ~ ~ j f k Z g U Q A ! ~ P k k k w :.",
",.w n G ^ ^ U U ~ A k ~ ~ Y ! U k f I k g k k f j 3.D.M c ! k ! ~ ~ A U ! A f U ! ! ~ Y P ! Q k w ,.",
"4.. i l l m O i i O O l i i i O O i i O . X . . m h.D.C X i O O M p O O m m O i i i p i i i O O . 1.",
"J.h.9 9 0 h.q q q h.h.h.q q h.k.3.0 q 0 q q g.q h.D.oXJ.q q 9 q q q 0 q 0 0 0 q q q 9 9 8 9 9 0 q z.",
"0.<.@.@.<.6.<.#.#.2.0.0.<.2.C.I.j.@.@.@.<.<.6.2.<.6.Y.Y.q.<.<.<.<.2.2.<.4.N.z.2.<.2.<.@.@.@.,.4.2.2.",
"~ R ~ / ` ^ ! k ! ~ ! _ G k k.G.M f ^ ^ ~ ~ A A ^ ^ / [ / ` ..e._ _ ` Y M N.b.f c ~ / _ ! ^ ^ _ ^ ! ",
"A ` / ....` ! A G _ _ ` e.G 4.I.F !  .e...) D A ~ ~ ~ [ / ~ _ D D ^ [ ~ F D.A.A ! ^ ` ..G ! k A ! A ",
"` r.r.e..._ ^ ! ^ _ _ ~ ` ^ 4.I.F ! e.y.a...G G ( ! _ e._ ^ G ~ ~ _ ) Y Z D.A.f ~ ~ [ ) ^ ~ ! ^ ` ^ ",
"_ t._ ^ ^ ` ~ A J ^ ) ~ / R 3.J.C A G ^ ^ ^ G G ~ A D J ^ ( J ^ _ _ ) U i N.A.k ! ~ ) ) ! ~ ! ! ^ / ",
"e. ._ G ~ / ^ G G ^ ` ..` ! 3.I.C n A ^ ^ G G J ^ G A G _ _ / ^ ) ` ` ~ i z.L.^ ` ^ ) _ o.` o._ _ ` ",
"J J Z Z G _ G Z Z A A F J k 4.I.B p j Z Z M N Z A A j Z Z A G G | J G ! m l.b.J _ A A A Z A A H Z A ",
": : > > > > : : : : : : > 5 h.I.2.: : : : : : : : : : : : > 4 5 < : : > @.l.C.2.{ > > : : : : : : : ",
"N.z.C.M.N.z.z.l.z.C.N.z.C.N.C.`.`.P.D.D.J.L.J.J.L.D.z.N.D.D.C.D.z.h.l.N.C.C.I.(.D.D.C.z.N.z.l.z.l.z.",
"I.`.}.}.L.D.I.L.L.W.W.U.L.Z.I.[.I.U.W.Z.V.S.L.L.V.V.D.L.W.Z.L.L.L.D.L.L.W.[.[.`.!.`.`.`.`.!.I.Z.C.U."
};
